<svg width="676" height="266" viewBox="0 0 676 266" fill="none" xmlns="http://www.w3.org/2000/svg">
<g filter="url(#filter0_f_18_2)">
<ellipse cx="321.565" cy="19.5" rx="3.52174" ry="13.5" fill="white"/>
</g>
<rect x="294.565" y="40.0435" width="32.8696" height="35.2174" fill="#CF8662"/>
<g filter="url(#filter1_d_18_2)">
<path d="M311 22.4348L334.383 44.4457H287.617L311 22.4348Z" fill="#705A60"/>
</g>
<rect x="318.043" y="25.9565" width="7.04348" height="12.913" fill="#705A60"/>
<rect x="298.087" y="47.0869" width="10.5652" height="9.3913" fill="#B1D6D6"/>
<rect x="298.087" y="60" width="10.5652" height="9.3913" fill="#B1D6D6"/>
<rect x="313.348" y="47.0869" width="10.5652" height="9.3913" fill="#B1D6D6"/>
<rect x="313.348" y="60" width="10.5652" height="15.2609" fill="#6F4A4F"/>
<path d="M0 353H676C551 183.5 457 71 300.5 71C45.3645 71 0 353 0 353Z" fill="url(#paint0_linear_18_2)"/>
<ellipse cx="217.5" cy="111.5" rx="19.5" ry="5.5" fill="#4A4A4A" fill-opacity="0.17"/>
<path d="M237.5 96H199L217 16L237.5 96Z" fill="#91D185"/>
<path d="M217.5 111.5V90M217.5 70V81.5M217.5 81.5L225.5 74M217.5 81.5V85.75M217.5 90L225.5 84M217.5 90V85.75M217.5 85.75L211 78.5" stroke="#AE9A6C" stroke-width="3"/>
<ellipse cx="406.673" cy="127.861" rx="14.6733" ry="4.13861" fill="#242424" fill-opacity="0.13"/>
<path d="M421.723 116.198H392.752L406.297 56L421.723 116.198Z" fill="#277C6A"/>
<path d="M406.673 127.861V111.683M406.673 96.6337V105.287M406.673 105.287L412.693 99.6436M406.673 105.287V108.485M406.673 111.683L412.693 107.168M406.673 111.683V108.485M406.673 108.485L401.782 103.03" stroke="#AE9A6C" stroke-width="2"/>
<defs>
<filter id="filter0_f_18_2" x="312.043" y="0" width="19.0435" height="39" filterUnits="userSpaceOnUse" color-interpolation-filters="sRGB">
<feFlood flood-opacity="0" result="BackgroundImageFix"/>
<feBlend mode="normal" in="SourceGraphic" in2="BackgroundImageFix" result="shape"/>
<feGaussianBlur stdDeviation="3" result="effect1_foregroundBlur_18_2"/>
</filter>
<filter id="filter1_d_18_2" x="285.617" y="22.4348" width="50.7654" height="26.0109" filterUnits="userSpaceOnUse" color-interpolation-filters="sRGB">
<feFlood flood-opacity="0" result="BackgroundImageFix"/>
<feColorMatrix in="SourceAlpha" type="matrix" values="0 0 0 0 0 0 0 0 0 0 0 0 0 0 0 0 0 0 127 0" result="hardAlpha"/>
<feOffset dy="2"/>
<feGaussianBlur stdDeviation="1"/>
<feComposite in2="hardAlpha" operator="out"/>
<feColorMatrix type="matrix" values="0 0 0 0 0 0 0 0 0 0 0 0 0 0 0 0 0 0 0.25 0"/>
<feBlend mode="normal" in2="BackgroundImageFix" result="effect1_dropShadow_18_2"/>
<feBlend mode="normal" in="SourceGraphic" in2="effect1_dropShadow_18_2" result="shape"/>
</filter>
<linearGradient id="paint0_linear_18_2" x1="338" y1="55" x2="338" y2="353" gradientUnits="userSpaceOnUse">
<stop stop-color="#388270"/>
<stop offset="1" stop-color="#52C2A8"/>
</linearGradient>
</defs>
</svg>
