<svg width="593" height="160" viewBox="0 0 593 160" fill="none" xmlns="http://www.w3.org/2000/svg">
<path d="M0 216.222C0 216.222 272.5 -162.277 593 216.222H0Z" fill="url(#paint0_linear_18_3)"/>
<ellipse cx="264.5" cy="74.5" rx="21.5" ry="6.5" fill="#4A4A4A" fill-opacity="0.17"/>
<g filter="url(#filter0_f_18_3)">
<ellipse rx="3.84783" ry="13.5" transform="matrix(-1 0 0 1 252.956 19.5)" fill="white"/>
</g>
<rect width="35.913" height="35.2174" transform="matrix(-1 0 0 1 282.457 40.0435)" fill="#71A1AA"/>
<g filter="url(#filter1_d_18_3)">
<path d="M264.5 22.4348L238.952 44.4457H290.048L264.5 22.4348Z" fill="#6D5B5F"/>
</g>
<rect width="7.69565" height="12.913" transform="matrix(-1 0 0 1 256.804 25.9565)" fill="#6D5B5F"/>
<rect width="11.5435" height="9.3913" transform="matrix(-1 0 0 1 278.609 47.0869)" fill="#CAF9FD"/>
<rect width="11.5435" height="9.3913" transform="matrix(-1 0 0 1 278.609 60)" fill="#CAF9FD"/>
<rect width="11.5435" height="9.3913" transform="matrix(-1 0 0 1 261.935 47.0869)" fill="#CAF9FD"/>
<rect width="11.5435" height="15.2609" transform="matrix(-1 0 0 1 261.935 60)" fill="#6D5B5F"/>
<ellipse cx="100.5" cy="150.5" rx="19.5" ry="5.5" fill="#4A4A4A" fill-opacity="0.17"/>
<path d="M120.5 135H82L100 55L120.5 135Z" fill="#F5D252"/>
<path d="M100.5 150.5V129M100.5 109V120.5M100.5 120.5L108.5 113M100.5 120.5V124.75M100.5 129L108.5 123M100.5 129V124.75M100.5 124.75L94 117.5" stroke="#AE9A6C" stroke-width="3"/>
<path d="M161.46 155.743H129.822L144.614 90L161.46 155.743Z" fill="#F3A2A1"/>
<path d="M145.025 168.48V150.812M145.025 134.376V143.827M145.025 143.827L151.599 137.663M145.025 143.827V147.319M145.025 150.812L151.599 145.881M145.025 150.812V147.319M145.025 147.319L139.683 141.361" stroke="#AE9A6C" stroke-width="3"/>
<ellipse cx="181.025" cy="140.48" rx="16.0248" ry="4.5198" fill="#4A4A4A" fill-opacity="0.17"/>
<path d="M197.46 127.743H165.822L180.614 62L197.46 127.743Z" fill="#277C6B"/>
<path d="M181.025 140.48V122.812M181.025 106.376V115.827M181.025 115.827L187.599 109.663M181.025 115.827V119.319M181.025 122.812L187.599 117.881M181.025 122.812V119.319M181.025 119.319L175.683 113.361" stroke="#AE9A6C" stroke-width="3"/>
<defs>
<filter id="filter0_f_18_3" x="243.109" y="0" width="19.6957" height="39" filterUnits="userSpaceOnUse" color-interpolation-filters="sRGB">
<feFlood flood-opacity="0" result="BackgroundImageFix"/>
<feBlend mode="normal" in="SourceGraphic" in2="BackgroundImageFix" result="shape"/>
<feGaussianBlur stdDeviation="3" result="effect1_foregroundBlur_18_3"/>
</filter>
<filter id="filter1_d_18_3" x="236.952" y="22.4348" width="55.0955" height="26.0109" filterUnits="userSpaceOnUse" color-interpolation-filters="sRGB">
<feFlood flood-opacity="0" result="BackgroundImageFix"/>
<feColorMatrix in="SourceAlpha" type="matrix" values="0 0 0 0 0 0 0 0 0 0 0 0 0 0 0 0 0 0 127 0" result="hardAlpha"/>
<feOffset dy="2"/>
<feGaussianBlur stdDeviation="1"/>
<feComposite in2="hardAlpha" operator="out"/>
<feColorMatrix type="matrix" values="0 0 0 0 0 0 0 0 0 0 0 0 0 0 0 0 0 0 0.25 0"/>
<feBlend mode="normal" in2="BackgroundImageFix" result="effect1_dropShadow_18_3"/>
<feBlend mode="normal" in="SourceGraphic" in2="effect1_dropShadow_18_3" result="shape"/>
</filter>
<linearGradient id="paint0_linear_18_3" x1="296.5" y1="48" x2="296.5" y2="216.222" gradientUnits="userSpaceOnUse">
<stop stop-color="#62CAB2"/>
<stop offset="1" stop-color="#6DEDD0"/>
</linearGradient>
</defs>
</svg>
