<svg width="593" height="112" viewBox="0 0 593 112" fill="none" xmlns="http://www.w3.org/2000/svg">
<path d="M0 146C0 146 272.5 -106 593 146H0Z" fill="url(#paint0_linear_18_4)"/>
<ellipse cx="354.515" cy="89.8267" rx="18.3416" ry="5.17327" fill="#4A4A4A" fill-opacity="0.17"/>
<path d="M373.327 75.2475H337.114L354.045 0L373.327 75.2475Z" fill="#F5D252"/>
<path d="M354.515 89.8268V69.604M354.515 50.7921V61.6089M354.515 61.6089L362.04 54.5545M354.515 61.6089V65.6065M354.515 69.604L362.04 63.9604M354.515 69.604V65.6065M354.515 65.6065L348.401 58.7872" stroke="#AE9A6C" stroke-width="3"/>
<ellipse cx="294.025" cy="107.48" rx="16.0248" ry="4.5198" fill="#4A4A4A" fill-opacity="0.17"/>
<path d="M310.46 94.7426H278.822L293.614 29L310.46 94.7426Z" fill="#F3A2A1"/>
<path d="M294.025 107.48V89.8119M294.025 73.3762V82.8267M294.025 82.8267L300.599 76.6633M294.025 82.8267V86.3193M294.025 89.8119L300.599 84.8812M294.025 89.8119V86.3193M294.025 86.3193L288.683 80.3614" stroke="#AE9A6C" stroke-width="3"/>
<ellipse cx="412.008" cy="109.099" rx="17.3762" ry="4.90099" fill="#4A4A4A" fill-opacity="0.17"/>
<path d="M429.829 95.2871H395.522L411.562 24L429.829 95.2871Z" fill="#277C6B"/>
<path d="M412.007 109.099V89.9406M412.007 72.1188V82.3663M412.007 82.3663L419.136 75.6831M412.007 82.3663V86.1534M412.007 89.9406L419.136 84.594M412.007 89.9406V86.1534M412.007 86.1534L406.215 79.693" stroke="#AE9A6C" stroke-width="3"/>
<defs>
<linearGradient id="paint0_linear_18_4" x1="296.5" y1="34" x2="296.5" y2="146" gradientUnits="userSpaceOnUse">
<stop stop-color="#FEFEFE"/>
<stop offset="1" stop-color="#FBFFEE"/>
</linearGradient>
</defs>
</svg>
