<svg width="1493" height="907" viewBox="0 0 1493 907" fill="none" xmlns="http://www.w3.org/2000/svg">
<g clip-path="url(#clip0_12_3)">
<rect width="1493" height="907" fill="white"/>
<rect x="-78" y="-54" width="1727" height="1074" fill="#DFECE8"/>
<g filter="url(#filter0_f_12_3)">
<ellipse cx="758.565" cy="660.5" rx="3.52174" ry="13.5" fill="white"/>
</g>
<rect x="731.565" y="681.043" width="32.8696" height="35.2174" fill="#CF8662"/>
<g filter="url(#filter1_d_12_3)">
<path d="M748 663.435L771.383 685.446H724.617L748 663.435Z" fill="#705A60"/>
</g>
<rect x="755.043" y="666.957" width="7.04348" height="12.913" fill="#705A60"/>
<rect x="735.087" y="688.087" width="10.5652" height="9.3913" fill="#B1D6D6"/>
<rect x="735.087" y="701" width="10.5652" height="9.3913" fill="#B1D6D6"/>
<rect x="750.348" y="688.087" width="10.5652" height="9.3913" fill="#B1D6D6"/>
<rect x="750.348" y="701" width="10.5652" height="15.2609" fill="#6F4A4F"/>
<path d="M437 994H1113C988 824.5 894 712 737.5 712C482.365 712 437 994 437 994Z" fill="url(#paint0_linear_12_3)"/>
<path d="M701 941C701 941 973.5 689 1294 941H701Z" fill="url(#paint1_linear_12_3)"/>
<path d="M154 963.222C154 963.222 426.5 584.723 747 963.222H154Z" fill="url(#paint2_linear_12_3)"/>
<ellipse cx="418.5" cy="821.5" rx="21.5" ry="6.5" fill="#4A4A4A" fill-opacity="0.17"/>
<g filter="url(#filter2_f_12_3)">
<ellipse rx="3.84783" ry="13.5" transform="matrix(-1 0 0 1 406.956 766.5)" fill="white"/>
</g>
<rect width="35.913" height="35.2174" transform="matrix(-1 0 0 1 436.457 787.043)" fill="#71A1AA"/>
<g filter="url(#filter3_d_12_3)">
<path d="M418.5 769.435L392.952 791.446H444.048L418.5 769.435Z" fill="#6D5B5F"/>
</g>
<rect width="7.69565" height="12.913" transform="matrix(-1 0 0 1 410.804 772.957)" fill="#6D5B5F"/>
<rect width="11.5435" height="9.3913" transform="matrix(-1 0 0 1 432.609 794.087)" fill="#CAF9FD"/>
<rect width="11.5435" height="9.3913" transform="matrix(-1 0 0 1 432.609 807)" fill="#CAF9FD"/>
<rect width="11.5435" height="9.3913" transform="matrix(-1 0 0 1 415.935 794.087)" fill="#CAF9FD"/>
<rect width="11.5435" height="15.2609" transform="matrix(-1 0 0 1 415.935 807)" fill="#6D5B5F"/>
<ellipse cx="654.5" cy="752.5" rx="19.5" ry="5.5" fill="#4A4A4A" fill-opacity="0.17"/>
<path d="M674.5 737H636L654 657L674.5 737Z" fill="#91D185"/>
<path d="M654.5 752.5V731M654.5 711V722.5M654.5 722.5L662.5 715M654.5 722.5V726.75M654.5 731L662.5 725M654.5 731V726.75M654.5 726.75L648 719.5" stroke="#AE9A6C" stroke-width="3"/>
<ellipse cx="254.5" cy="897.5" rx="19.5" ry="5.5" fill="#4A4A4A" fill-opacity="0.17"/>
<path d="M274.5 882H236L254 802L274.5 882Z" fill="#F5D252"/>
<path d="M254.5 897.5V876M254.5 856V867.5M254.5 867.5L262.5 860M254.5 867.5V871.75M254.5 876L262.5 870M254.5 876V871.75M254.5 871.75L248 864.5" stroke="#AE9A6C" stroke-width="3"/>
<ellipse cx="1055.51" cy="884.827" rx="18.3416" ry="5.17327" fill="#4A4A4A" fill-opacity="0.17"/>
<path d="M1074.33 870.248H1038.11L1055.04 795L1074.33 870.248Z" fill="#F5D252"/>
<path d="M1055.51 884.827V864.604M1055.51 845.792V856.609M1055.51 856.609L1063.04 849.554M1055.51 856.609V860.606M1055.51 864.604L1063.04 858.96M1055.51 864.604V860.606M1055.51 860.606L1049.4 853.787" stroke="#AE9A6C" stroke-width="3"/>
<path d="M315.46 902.743H283.822L298.614 837L315.46 902.743Z" fill="#F3A2A1"/>
<path d="M299.025 915.48V897.812M299.025 881.376V890.827M299.025 890.827L305.599 884.663M299.025 890.827V894.319M299.025 897.812L305.599 892.881M299.025 897.812V894.319M299.025 894.319L293.683 888.361" stroke="#AE9A6C" stroke-width="3"/>
<ellipse cx="995.025" cy="902.48" rx="16.0248" ry="4.5198" fill="#4A4A4A" fill-opacity="0.17"/>
<path d="M1011.46 889.743H979.822L994.614 824L1011.46 889.743Z" fill="#F3A2A1"/>
<path d="M995.025 902.48V884.812M995.025 868.376V877.827M995.025 877.827L1001.6 871.663M995.025 877.827V881.319M995.025 884.812L1001.6 879.881M995.025 884.812V881.319M995.025 881.319L989.683 875.361" stroke="#AE9A6C" stroke-width="3"/>
<ellipse cx="335.025" cy="887.48" rx="16.0248" ry="4.5198" fill="#4A4A4A" fill-opacity="0.17"/>
<path d="M351.46 874.743H319.822L334.614 809L351.46 874.743Z" fill="#277C6B"/>
<path d="M335.025 887.48V869.812M335.025 853.376V862.827M335.025 862.827L341.599 856.663M335.025 862.827V866.319M335.025 869.812L341.599 864.881M335.025 869.812V866.319M335.025 866.319L329.683 860.361" stroke="#AE9A6C" stroke-width="3"/>
<ellipse cx="1113.01" cy="904.099" rx="17.3762" ry="4.90099" fill="#4A4A4A" fill-opacity="0.17"/>
<path d="M1130.83 890.287H1096.52L1112.56 819L1130.83 890.287Z" fill="#277C6B"/>
<path d="M1113.01 904.099V884.941M1113.01 867.119V877.366M1113.01 877.366L1120.14 870.683M1113.01 877.366V881.153M1113.01 884.941L1120.14 879.594M1113.01 884.941V881.153M1113.01 881.153L1107.22 874.693" stroke="#AE9A6C" stroke-width="3"/>
<ellipse cx="843.673" cy="768.861" rx="14.6733" ry="4.13861" fill="#242424" fill-opacity="0.13"/>
<path d="M858.723 757.198H829.752L843.297 697L858.723 757.198Z" fill="#277C6A"/>
<path d="M843.673 768.861V752.683M843.673 737.634V746.287M843.673 746.287L849.693 740.644M843.673 746.287V749.485M843.673 752.683L849.693 748.168M843.673 752.683V749.485M843.673 749.485L838.782 744.03" stroke="#AE9A6C" stroke-width="2"/>
<path d="M342 556.889H164C169 540.889 180 541.389 184 541.389C190.8 525.789 210.5 524.556 219.5 525.889C265 474.389 300 525.889 301.5 525.889C337.722 525.891 342.5 543.889 342 556.889Z" fill="white"/>
<path d="M231 530C233 523.5 243 523.5 245 530" stroke="#DAE4E1" stroke-width="2"/>
<path d="M273 529.875C275 523.375 285 523.375 287 529.875" stroke="#DAE4E1" stroke-width="2"/>
<path d="M269.969 532.143C267.05 542.356 252.826 542.254 250.055 532L269.969 532.143Z" fill="#DAE4E1"/>
<path d="M1274 355.889H1096C1101 339.889 1112 340.389 1116 340.389C1122.8 324.789 1142.5 323.556 1151.5 324.889C1197 273.389 1232 324.889 1233.5 324.889C1269.72 324.891 1274.5 342.889 1274 355.889Z" fill="white"/>
<path d="M1163 329C1165 322.5 1175 322.5 1177 329" stroke="#DAE4E1" stroke-width="2"/>
<path d="M1205 328.875C1207 322.375 1217 322.375 1219 328.875" stroke="#DAE4E1" stroke-width="2"/>
<path d="M1201.97 335.143C1199.05 345.356 1184.83 345.254 1182.06 335L1201.97 335.143Z" fill="#DAE4E1"/>
<path d="M593.973 280.269H451C455.016 267.417 464.787 262.38 468 262.38C473.462 249.85 483.5 246.88 493.5 251.88C530.047 210.514 561.795 253.88 563 253.88C592.094 253.882 598.5 270.88 593.973 280.269Z" fill="white"/>
<path d="M504.816 258.671C506.422 253.45 514.454 253.45 516.061 258.671" stroke="#DAE4E1" stroke-width="2"/>
<path d="M538.551 258.571C540.158 253.35 548.19 253.35 549.796 258.571" stroke="#DAE4E1" stroke-width="2"/>
<path d="M536.116 260.393C533.772 268.596 522.347 268.514 520.121 260.278L536.116 260.393Z" fill="#DAE4E1"/>
<path d="M1136.98 551.507H1023C1026.2 538.589 1033.25 538.993 1035.81 538.993C1040.16 526.398 1052.78 525.403 1058.54 526.479C1087.67 484.901 1110.08 526.479 1111.05 526.479C1134.24 526.481 1137.3 541.011 1136.98 551.507Z" fill="white"/>
<path d="M1065.9 529.798C1067.18 524.55 1073.59 524.551 1074.87 529.798" stroke="#DAE4E1" stroke-width="2"/>
<path d="M1092.8 529.697C1094.08 524.45 1100.48 524.45 1101.76 529.697" stroke="#DAE4E1" stroke-width="2"/>
<path d="M1090.86 531.529C1088.99 539.774 1079.88 539.691 1078.1 531.413L1090.86 531.529Z" fill="#DAE4E1"/>
<path d="M199 753V933.5" stroke="white" stroke-width="7"/>
<path d="M203 773L154 792.5L203 813V773Z" fill="#F4A2A0"/>
<path d="M203 751L154 770.5L203 791V751Z" fill="#67DAC0"/>
<path d="M1237 755V935.5" stroke="white" stroke-width="7"/>
<path d="M1241 775L1192 794.5L1241 815V775Z" fill="#F5D252"/>
<path d="M1241 753L1192 772.5L1241 793V753Z" fill="#F3A2A1"/>
</g>
<defs>
<filter id="filter0_f_12_3" x="749.043" y="641" width="19.0435" height="39" filterUnits="userSpaceOnUse" color-interpolation-filters="sRGB">
<feFlood flood-opacity="0" result="BackgroundImageFix"/>
<feBlend mode="normal" in="SourceGraphic" in2="BackgroundImageFix" result="shape"/>
<feGaussianBlur stdDeviation="3" result="effect1_foregroundBlur_12_3"/>
</filter>
<filter id="filter1_d_12_3" x="722.617" y="663.435" width="50.7654" height="26.0109" filterUnits="userSpaceOnUse" color-interpolation-filters="sRGB">
<feFlood flood-opacity="0" result="BackgroundImageFix"/>
<feColorMatrix in="SourceAlpha" type="matrix" values="0 0 0 0 0 0 0 0 0 0 0 0 0 0 0 0 0 0 127 0" result="hardAlpha"/>
<feOffset dy="2"/>
<feGaussianBlur stdDeviation="1"/>
<feComposite in2="hardAlpha" operator="out"/>
<feColorMatrix type="matrix" values="0 0 0 0 0 0 0 0 0 0 0 0 0 0 0 0 0 0 0.25 0"/>
<feBlend mode="normal" in2="BackgroundImageFix" result="effect1_dropShadow_12_3"/>
<feBlend mode="normal" in="SourceGraphic" in2="effect1_dropShadow_12_3" result="shape"/>
</filter>
<filter id="filter2_f_12_3" x="397.109" y="747" width="19.6957" height="39" filterUnits="userSpaceOnUse" color-interpolation-filters="sRGB">
<feFlood flood-opacity="0" result="BackgroundImageFix"/>
<feBlend mode="normal" in="SourceGraphic" in2="BackgroundImageFix" result="shape"/>
<feGaussianBlur stdDeviation="3" result="effect1_foregroundBlur_12_3"/>
</filter>
<filter id="filter3_d_12_3" x="390.952" y="769.435" width="55.0955" height="26.0109" filterUnits="userSpaceOnUse" color-interpolation-filters="sRGB">
<feFlood flood-opacity="0" result="BackgroundImageFix"/>
<feColorMatrix in="SourceAlpha" type="matrix" values="0 0 0 0 0 0 0 0 0 0 0 0 0 0 0 0 0 0 127 0" result="hardAlpha"/>
<feOffset dy="2"/>
<feGaussianBlur stdDeviation="1"/>
<feComposite in2="hardAlpha" operator="out"/>
<feColorMatrix type="matrix" values="0 0 0 0 0 0 0 0 0 0 0 0 0 0 0 0 0 0 0.25 0"/>
<feBlend mode="normal" in2="BackgroundImageFix" result="effect1_dropShadow_12_3"/>
<feBlend mode="normal" in="SourceGraphic" in2="effect1_dropShadow_12_3" result="shape"/>
</filter>
<linearGradient id="paint0_linear_12_3" x1="775" y1="696" x2="775" y2="994" gradientUnits="userSpaceOnUse">
<stop stop-color="#388270"/>
<stop offset="1" stop-color="#52C2A8"/>
</linearGradient>
<linearGradient id="paint1_linear_12_3" x1="997.5" y1="829" x2="997.5" y2="941" gradientUnits="userSpaceOnUse">
<stop stop-color="#FEFEFE"/>
<stop offset="1" stop-color="#FBFFEE"/>
</linearGradient>
<linearGradient id="paint2_linear_12_3" x1="450.5" y1="795" x2="450.5" y2="963.222" gradientUnits="userSpaceOnUse">
<stop stop-color="#62CAB2"/>
<stop offset="1" stop-color="#6DEDD0"/>
</linearGradient>
<clipPath id="clip0_12_3">
<rect width="1493" height="907" fill="white"/>
</clipPath>
</defs>
</svg>
