<svg width="56" height="49" viewBox="0 0 56 49" fill="none" xmlns="http://www.w3.org/2000/svg">
<path d="M32.0234 4.85812L52.5988 41.0219C54.1159 43.6885 52.1919 47 49.1239 47H37.0233H18.0117H6.17521C3.04181 47 1.12533 43.564 2.77365 40.8992L19.2553 14.2536L25.1461 4.73001C26.7435 2.14749 30.5217 2.21877 32.0234 4.85812Z" fill="url(#paint0_linear_13_46)"/>
<path d="M19.2553 14.2536C21.0307 11.3833 23.2858 7.7375 25.1461 4.73001C26.7435 2.14749 30.5217 2.21877 32.0234 4.85812L52.5988 41.0219C54.1159 43.6885 52.1919 47 49.1239 47C45.3354 47 40.675 47 37.0233 47M19.2553 14.2536C14.0961 22.5944 7.05039 33.9851 2.77365 40.8992C1.12533 43.564 3.04181 47 6.17521 47C9.9172 47 14.4448 47 18.0117 47M19.2553 14.2536C22.7247 20.6478 24.6699 24.2327 28.1393 30.6268M37.0233 47C33.5539 40.6059 31.6087 37.0209 28.1393 30.6268M37.0233 47C29.5988 47 25.4362 47 18.0117 47M28.1393 30.6268C24.1842 37.0209 21.9668 40.6059 18.0117 47" stroke="#E0ECE8" stroke-width="4"/>
<path d="M19.2553 14.2536C21.0307 11.3833 23.2858 7.7375 25.1461 4.73001C26.7435 2.14749 30.5217 2.21877 32.0234 4.85812L52.5988 41.0219C54.1159 43.6885 52.1919 47 49.1239 47C45.3354 47 40.675 47 37.0233 47M19.2553 14.2536C14.0961 22.5944 7.05039 33.9851 2.77365 40.8992C1.12533 43.564 3.04181 47 6.17521 47C9.9172 47 14.4448 47 18.0117 47M19.2553 14.2536C22.7247 20.6478 24.6699 24.2327 28.1393 30.6268M37.0233 47C33.5539 40.6059 31.6087 37.0209 28.1393 30.6268M37.0233 47C29.5988 47 25.4362 47 18.0117 47M28.1393 30.6268C24.1842 37.0209 21.9668 40.6059 18.0117 47" stroke="#E0ECE8" stroke-width="4"/>
<path d="M19.2553 14.2536C21.0307 11.3833 23.2858 7.7375 25.1461 4.73001C26.7435 2.14749 30.5217 2.21877 32.0234 4.85812L52.5988 41.0219C54.1159 43.6885 52.1919 47 49.1239 47C45.3354 47 40.675 47 37.0233 47M19.2553 14.2536C14.0961 22.5944 7.05039 33.9851 2.77365 40.8992C1.12533 43.564 3.04181 47 6.17521 47C9.9172 47 14.4448 47 18.0117 47M19.2553 14.2536C22.7247 20.6478 24.6699 24.2327 28.1393 30.6268M37.0233 47C33.5539 40.6059 31.6087 37.0209 28.1393 30.6268M37.0233 47C29.5988 47 25.4362 47 18.0117 47M28.1393 30.6268C24.1842 37.0209 21.9668 40.6059 18.0117 47" stroke="#E0ECE8" stroke-width="4"/>
<path d="M19.2553 14.2536C21.0307 11.3833 23.2858 7.7375 25.1461 4.73001C26.7435 2.14749 30.5217 2.21877 32.0234 4.85812L52.5988 41.0219C54.1159 43.6885 52.1919 47 49.1239 47C45.3354 47 40.675 47 37.0233 47M19.2553 14.2536C14.0961 22.5944 7.05039 33.9851 2.77365 40.8992C1.12533 43.564 3.04181 47 6.17521 47C9.9172 47 14.4448 47 18.0117 47M19.2553 14.2536C22.7247 20.6478 24.6699 24.2327 28.1393 30.6268M37.0233 47C33.5539 40.6059 31.6087 37.0209 28.1393 30.6268M37.0233 47C29.5988 47 25.4362 47 18.0117 47M28.1393 30.6268C24.1842 37.0209 21.9668 40.6059 18.0117 47" stroke="#E0ECE8" stroke-width="4"/>
<defs>
<linearGradient id="paint0_linear_13_46" x1="27.5" y1="-1" x2="27.5" y2="47" gradientUnits="userSpaceOnUse">
<stop stop-color="#439F8A"/>
<stop offset="1" stop-color="#277C6A"/>
</linearGradient>
</defs>
</svg>
